<svg width="32" height="42" viewBox="0 0 32 42" fill="none" xmlns="http://www.w3.org/2000/svg">
<path d="M6.97117 22.9942C6.26857 22.9942 5.66689 22.7443 5.16613 22.2444C4.66622 21.7436 4.41626 21.1419 4.41626 20.4393V2.55491C4.41626 1.85231 4.66622 1.25063 5.16613 0.749867C5.66689 0.249956 6.26857 0 6.97117 0H24.8556C25.5582 0 26.1598 0.249956 26.6606 0.749867C27.1605 1.25063 27.4105 1.85231 27.4105 2.55491V15.3295L19.7457 22.9942H6.97117ZM14.6359 14.052C14.9979 14.052 15.3015 13.9294 15.5467 13.6841C15.7912 13.4397 15.9134 13.1365 15.9134 12.7746C15.9134 12.4126 15.7912 12.109 15.5467 11.8637C15.3015 11.6193 14.9979 11.4971 14.6359 11.4971H10.8035C10.4416 11.4971 10.138 11.6193 9.89272 11.8637C9.6483 12.109 9.52609 12.4126 9.52609 12.7746C9.52609 13.1365 9.6483 13.4397 9.89272 13.6841C10.138 13.9294 10.4416 14.052 10.8035 14.052H14.6359ZM21.0232 8.9422C21.3851 8.9422 21.6883 8.81956 21.9327 8.57429C22.178 8.32987 22.3007 8.02669 22.3007 7.66474C22.3007 7.30279 22.178 6.99918 21.9327 6.75391C21.6883 6.50949 21.3851 6.38728 21.0232 6.38728H10.8035C10.4416 6.38728 10.138 6.50949 9.89272 6.75391C9.6483 6.99918 9.52609 7.30279 9.52609 7.66474C9.52609 8.02669 9.6483 8.32987 9.89272 8.57429C10.138 8.81956 10.4416 8.9422 10.8035 8.9422H21.0232ZM18.4683 20.4393L24.8556 14.052H19.7457C19.3838 14.052 19.0806 14.1742 18.8362 14.4187C18.5909 14.6639 18.4683 14.9675 18.4683 15.3295V20.4393Z" fill="#FF4500"/>
<path d="M10.1613 30.416H10.9213V37.248H10.1613V30.416ZM8.45733 33.168V30.456H9.20933V37.128H8.45733V33.92H7.23333C6.88933 35.728 5.85733 36.808 4.50533 36.824V36.08C5.77733 36.04 6.59333 34.656 6.59333 32.544V31.384H4.50533V30.664H7.36133V32.504C7.36133 32.736 7.35333 32.952 7.33733 33.168H8.45733ZM17.6326 30.416H18.4246V37.248H17.6326V30.416ZM15.1046 30.616C15.0966 31.664 15.0086 32.608 14.8326 33.424L17.0406 36.368L16.4006 36.824L14.5846 34.344C14.0806 35.848 13.2486 36.76 12.1686 36.84V36.04C13.5366 35.824 14.2886 33.456 14.2966 30.584L15.1046 30.616ZM25.928 32.064H26.888V32.824H25.928V35.488H25.136V30.416H25.928V32.064ZM24.632 34.056C24.208 34.24 23.384 34.368 22.392 34.368H19.752V33.696H20.608V31.256H19.776V30.584H24.336V31.256H23.504V33.648C23.976 33.6 24.352 33.512 24.632 33.392V34.056ZM21.376 31.256V33.696H22.488H22.736V31.256H21.376ZM21.016 34.976V36.44H26.112V37.16H20.216V34.976H21.016Z" fill="#FF4500"/>
</svg>
