<svg width="24" height="42" viewBox="0 0 24 42" fill="none" xmlns="http://www.w3.org/2000/svg">
<path d="M21.5215 4.84089H19.0151C19.1416 4.46572 19.222 4.05424 19.222 3.63067C19.222 1.6217 17.6814 0 15.7729 0C14.5657 0 13.5195 0.65352 12.8986 1.6338L12.3238 2.44465L11.7489 1.6217C11.1281 0.65352 10.0818 0 8.87464 0C6.96612 0 5.4255 1.6217 5.4255 3.63067C5.4255 4.05424 5.50598 4.46572 5.63245 4.84089H3.12608C1.8499 4.84089 0.838157 5.91799 0.838157 7.26133L0.82666 20.5738C0.82666 21.9171 1.8499 22.9942 3.12608 22.9942H21.5215C22.7976 22.9942 23.8209 21.9171 23.8209 20.5738V7.26133C23.8209 5.91799 22.7976 4.84089 21.5215 4.84089ZM15.7729 2.42044C16.4052 2.42044 16.9226 2.96504 16.9226 3.63067C16.9226 4.29629 16.4052 4.84089 15.7729 4.84089C15.1406 4.84089 14.6232 4.29629 14.6232 3.63067C14.6232 2.96504 15.1406 2.42044 15.7729 2.42044ZM8.87464 2.42044C9.50698 2.42044 10.0243 2.96504 10.0243 3.63067C10.0243 4.29629 9.50698 4.84089 8.87464 4.84089C8.2423 4.84089 7.72493 4.29629 7.72493 3.63067C7.72493 2.96504 8.2423 2.42044 8.87464 2.42044ZM21.5215 20.5738H3.12608V18.1533H21.5215V20.5738ZM21.5215 14.5227H3.12608V7.26133H8.96661L6.57521 10.6863L8.43775 12.1022L11.1741 8.1811L12.3238 6.5352L13.4735 8.1811L16.2098 12.1022L18.0723 10.6863L15.6809 7.26133H21.5215V14.5227Z" fill="#DCDCDC"/>
<path d="M6.78773 30.4V31.496H8.17173V32.208H4.59573V31.496H6.00373V30.4H6.78773ZM10.5957 30.416H11.3317V37.248H10.5957V30.416ZM9.04373 32.672V30.456H9.77173V37.128H9.04373V35.152H8.21973V34.416H9.04373V33.408H8.21973V32.672H9.04373ZM6.39573 32.728C7.28373 32.728 7.93173 33.464 7.93173 34.824C7.93173 36.184 7.28373 36.92 6.39573 36.92C5.49973 36.92 4.85173 36.184 4.85173 34.824C4.85173 33.464 5.49973 32.728 6.39573 32.728ZM6.39573 36.224C6.86773 36.224 7.21173 35.72 7.21173 34.824C7.21173 33.928 6.86773 33.424 6.39573 33.424C5.91573 33.424 5.57173 33.928 5.57173 34.824C5.57173 35.72 5.91573 36.224 6.39573 36.224ZM18.275 30.416H19.027V34.784H18.275V32.776H17.163V34.712H16.411V30.456H17.163V32.048H18.275V30.416ZM15.915 34.224C15.467 34.4 14.763 34.48 13.979 34.48H12.667V30.584H15.691V31.248H13.419V32.176H15.595V32.824H13.419V33.816H14.043C14.803 33.816 15.459 33.736 15.915 33.568V34.224ZM12.995 35.832V35.16H19.027V37.248H18.243V35.832H12.995Z" fill="#DCDCDC"/>
</svg>
