<svg width="24" height="41" viewBox="0 0 24 41" fill="none" xmlns="http://www.w3.org/2000/svg">
<path d="M21.5272 0H3.13182C1.86714 0 0.843895 1.03474 0.843895 2.29942L0.832397 22.9942L5.43124 18.3954H21.5272C22.7919 18.3954 23.8266 17.3606 23.8266 16.096V2.29942C23.8266 1.03474 22.7919 0 21.5272 0ZM5.43124 8.04798H19.2278V10.3474H5.43124V8.04798ZM14.6289 13.7965H5.43124V11.4971H14.6289V13.7965ZM19.2278 6.89827H5.43124V4.59884H19.2278V6.89827Z" fill="#FF4500"/>
<path d="M3.4004 31.7301C3.3924 32.2821 3.3604 32.7941 3.2964 33.2501L4.9444 35.9701L4.3124 36.3461L3.1044 34.2981C2.7764 35.5621 2.1764 36.2901 1.3044 36.4181V35.6661C2.1924 35.4661 2.6084 33.9221 2.6404 31.7301H1.3764V31.0101H2.6404V29.9781H3.4004V31.0101H4.6404V31.7301H3.4004ZM7.0884 29.9941H7.8404V36.8261H7.0884V33.4981H5.9764V36.7061H5.2244V30.0341H5.9764V32.7461H7.0884V29.9941ZM15.3437 29.9941V34.0661H14.5517V29.9941H15.3437ZM14.0157 33.4501C13.5917 33.6341 12.7677 33.7541 11.7997 33.7541H9.27971V30.1621H13.5197V30.8101H10.0637V31.6341H13.3837V32.2661H10.0637V33.1061H11.8637C12.7917 33.1061 13.5757 32.9941 14.0157 32.8021V33.4501ZM12.4797 34.2821C14.1437 34.2821 15.4477 34.6021 15.4477 35.5541C15.4477 36.4981 14.1437 36.8261 12.4797 36.8261C10.8237 36.8261 9.51171 36.4981 9.51171 35.5541C9.51171 34.6021 10.8237 34.2821 12.4797 34.2821ZM12.4797 36.1941C13.6717 36.1941 14.6077 36.0181 14.6077 35.5541C14.6077 35.0901 13.6717 34.9141 12.4797 34.9141C11.2957 34.9141 10.3517 35.0901 10.3517 35.5541C10.3517 36.0181 11.2957 36.1941 12.4797 36.1941Z" fill="#FF4500"/>
</svg>
