<svg width="23" height="42" viewBox="0 0 23 42" fill="none" xmlns="http://www.w3.org/2000/svg">
<path d="M9.00155 22.9942H4.01044C3.6569 22.9942 3.36035 22.8618 3.12077 22.5971C2.88203 22.3332 2.76266 22.006 2.76266 21.6153V11.9625H0.641436C0.350288 11.9625 0.152723 11.8131 0.0487414 11.5143C-0.0552402 11.2156 0.00714859 10.9628 0.235908 10.7559L10.6549 0.379215C10.8836 0.126405 11.1644 0 11.4971 0C11.8299 0 12.1106 0.126405 12.3394 0.379215L16.4882 4.51611V2.30976C16.4882 1.91906 16.608 1.59132 16.8476 1.32656C17.0863 1.06272 17.3825 0.9308 17.736 0.9308H18.9838C19.3373 0.9308 19.6335 1.06272 19.8722 1.32656C20.1118 1.59132 20.2316 1.91906 20.2316 2.30976V8.23931L22.7583 10.7559C22.9871 10.9628 23.0495 11.2156 22.9455 11.5143C22.8415 11.8131 22.6439 11.9625 22.3528 11.9625H20.2316V21.6153C20.2316 22.006 20.1118 22.3332 19.8722 22.5971C19.6335 22.8618 19.3373 22.9942 18.9838 22.9942H13.9927V16.0994C13.9927 15.7087 13.8733 15.381 13.6346 15.1162C13.395 14.8524 13.0984 14.7204 12.7449 14.7204H10.2493C9.89579 14.7204 9.59966 14.8524 9.36091 15.1162C9.12134 15.381 9.00155 15.7087 9.00155 16.0994V22.9942ZM9.00155 9.23906H13.9927C13.9927 8.50361 13.7431 7.90008 13.244 7.42848C12.7449 6.95779 12.1626 6.72245 11.4971 6.72245C10.8316 6.72245 10.2493 6.95779 9.75022 7.42848C9.25111 7.90008 9.00155 8.50361 9.00155 9.23906Z" fill="#DCDCDC"/>
<path d="M14.6335 30.768V31.336H8.36145V30.768H11.0895V30.144H11.8895V30.768H14.6335ZM11.8895 34.088H14.9135V34.672H8.08945V34.088H11.1055V33.584C9.63345 33.544 8.63345 33.256 8.63345 32.632C8.63345 31.952 9.80945 31.672 11.4975 31.672C13.1855 31.672 14.3615 31.952 14.3615 32.632C14.3615 33.256 13.3615 33.544 11.8895 33.584V34.088ZM9.42545 32.632C9.42545 32.904 10.3215 33.04 11.4975 33.04C12.6815 33.04 13.5695 32.904 13.5695 32.632C13.5695 32.36 12.6815 32.224 11.4975 32.224C10.3215 32.224 9.42545 32.36 9.42545 32.632ZM8.56145 37.168V35.192H14.4335V37.168H8.56145ZM9.33745 35.76V36.6H13.6575V35.76H9.33745Z" fill="#DCDCDC"/>
</svg>
