<svg width="24" height="42" viewBox="0 0 24 42" fill="none" xmlns="http://www.w3.org/2000/svg">
<path d="M12.3179 11.4971C10.7371 11.4971 9.38375 10.9342 8.25799 9.80847C7.13224 8.68271 6.56936 7.32941 6.56936 5.74855C6.56936 4.1677 7.13224 2.8144 8.25799 1.68864C9.38375 0.56288 10.7371 0 12.3179 0C13.8988 0 15.2521 0.56288 16.3778 1.68864C17.5036 2.8144 18.0665 4.1677 18.0665 5.74855C18.0665 7.32941 17.5036 8.68271 16.3778 9.80847C15.2521 10.9342 13.8988 11.4971 12.3179 11.4971ZM3.69508 22.9942C2.90465 22.9942 2.22824 22.713 1.66584 22.1506C1.10248 21.5873 0.820801 20.9104 0.820801 20.1199V18.9702C0.820801 18.1559 1.03062 17.4071 1.45027 16.724C1.86895 16.0418 2.42561 15.5211 3.12022 15.1618C4.60527 14.4193 6.11426 13.8622 7.64721 13.4904C9.18016 13.1196 10.7371 12.9342 12.3179 12.9342C13.8988 12.9342 15.4557 13.1196 16.9886 13.4904C18.5216 13.8622 20.0306 14.4193 21.5156 15.1618C22.2102 15.5211 22.7669 16.0418 23.1856 16.724C23.6052 17.4071 23.815 18.1559 23.815 18.9702V20.1199C23.815 20.9104 23.5338 21.5873 22.9714 22.1506C22.4081 22.713 21.7312 22.9942 20.9407 22.9942H3.69508Z" fill="#DCDCDC"/>
<path d="M5.50587 30.672H6.24187L8.71387 35.024L11.1859 30.672H11.9219V37.08H11.0819V32.352L9.01787 36H8.40987L6.34587 32.352V37.08H5.50587V30.672ZM18.7591 30.672L16.1671 34.936V37.08H15.3191V34.936L12.8071 30.672H13.7591L15.7751 34.152L17.8551 30.672H18.7591Z" fill="#DCDCDC"/>
</svg>
