<svg width="29" height="30" viewBox="0 0 29 30" fill="none" xmlns="http://www.w3.org/2000/svg">
<path d="M23.6906 8.29296V12.7201C23.6906 12.7201 20.7441 12.735 20.7293 12.7201V8.29296H16.2873C16.2873 8.29296 16.3021 5.34645 16.2873 5.33164H20.7293V0.889648H23.6906V5.33164H28.1326V8.29296H23.6906ZM19.2486 14.2156V9.77363H14.8066V5.33164H2.96133C1.3326 5.33164 0 6.66424 0 8.29296V26.0609C0 27.6897 1.3326 29.0223 2.96133 29.0223H20.7293C22.358 29.0223 23.6906 27.6897 23.6906 26.0609V14.2156H19.2486ZM2.96133 26.0609L7.40332 20.1383L10.3646 24.5803L14.8066 18.6576L20.7293 26.0609H2.96133Z" fill="white"/>
</svg>
