<svg width="18" height="18" viewBox="0 0 18 18" fill="none" xmlns="http://www.w3.org/2000/svg">
<path d="M7.72195 13.513C8.48245 13.513 9.2355 13.3632 9.93811 13.0722C10.6407 12.7812 11.2791 12.3546 11.8169 11.8169C12.3546 11.2791 12.7812 10.6407 13.0722 9.9381C13.3633 9.23549 13.5131 8.48244 13.5131 7.72195C13.5131 6.96145 13.3633 6.2084 13.0722 5.50579C12.7812 4.80318 12.3546 4.16478 11.8169 3.62702C11.2791 3.08927 10.6407 2.6627 9.93811 2.37167C9.2355 2.08064 8.48245 1.93085 7.72195 1.93085C6.18606 1.93085 4.71307 2.54098 3.62703 3.62702C2.54098 4.71306 1.93085 6.18605 1.93085 7.72195C1.93085 9.25784 2.54098 10.7308 3.62703 11.8169C4.71307 12.9029 6.18606 13.513 7.72195 13.513ZM13.8219 12.4571L17.2773 15.9125C17.3694 16.0016 17.4428 16.1081 17.4933 16.2259C17.5438 16.3437 17.5704 16.4704 17.5714 16.5985C17.5724 16.7267 17.5479 16.8538 17.4993 16.9724C17.4507 17.0909 17.3789 17.1987 17.2882 17.2892C17.1976 17.3798 17.0898 17.4514 16.9711 17.4998C16.8524 17.5483 16.7253 17.5726 16.5972 17.5714C16.469 17.5702 16.3424 17.5435 16.2247 17.4928C16.107 17.4421 16.0005 17.3685 15.9115 17.2763L12.4562 13.8209C10.9046 15.0253 8.95236 15.5932 6.99686 15.4088C5.04136 15.2245 3.22961 14.3019 1.93042 12.8288C0.63123 11.3557 -0.0577296 9.44281 0.00379222 7.47961C0.0653141 5.51641 0.872692 3.65044 2.26157 2.26157C3.65045 0.872692 5.51641 0.065314 7.47962 0.00379222C9.44282 -0.0577296 11.3557 0.631229 12.8288 1.93042C14.3019 3.22961 15.2245 5.04136 15.4089 6.99686C15.5932 8.95235 15.0254 10.9046 13.8209 12.4562L13.8219 12.4571Z" fill="#FF4500"/>
</svg>
